HIERARCHY
ROOT mixamorig:Hips
{
	OFFSET -0.000008 104.274872 1.554316
	CHANNELS 6 Xposition Yposition Zposition Xrotation Yrotation Zrotation
	JOINT mixamorig:Spine
	{
		OFFSET -0.000005 10.181595 0.131519
		CHANNELS 6 Xposition Yposition Zposition Xrotation Yrotation Zrotation
		JOINT mixamorig:Spine1
		{
			OFFSET -0.000000 9.893959 -1.470707
			CHANNELS 6 Xposition Yposition Zposition Xrotation Yrotation Zrotation
			JOINT mixamorig:Spine2
			{
				OFFSET -0.000000 9.220757 -1.370641
				CHANNELS 6 Xposition Yposition Zposition Xrotation Yrotation Zrotation
				JOINT mixamorig:Neck
				{
					OFFSET 0.000001 16.740417 -2.049036
					CHANNELS 6 Xposition Yposition Zposition Xrotation Yrotation Zrotation
					JOINT mixamorig:Head
					{
						OFFSET 0.000000 9.617874 1.685006
						CHANNELS 6 Xposition Yposition Zposition Xrotation Yrotation Zrotation
						JOINT mixamorig:HeadTop_End
						{
							OFFSET 0.000002 22.037354 7.501101
							CHANNELS 6 Xposition Yposition Zposition Xrotation Yrotation Zrotation
							End Site
							{
								OFFSET 0.000168 2310.654297 -282.823242
							}
						}
					}
				}
				JOINT mixamorig:RightShoulder
				{
					OFFSET -4.569970 11.014908 -2.160885
					CHANNELS 6 Xposition Yposition Zposition Xrotation Yrotation Zrotation
					JOINT mixamorig:RightArm
					{
						OFFSET -10.592851 -0.524811 -2.232101
						CHANNELS 6 Xposition Yposition Zposition Xrotation Yrotation Zrotation
						JOINT mixamorig:RightForeArm
						{
							OFFSET -27.841511 0.000031 -0.000004
							CHANNELS 6 Xposition Yposition Zposition Xrotation Yrotation Zrotation
							JOINT mixamorig:RightHand
							{
								OFFSET -28.328831 -0.000015 0.000015
								CHANNELS 6 Xposition Yposition Zposition Xrotation Yrotation Zrotation
								JOINT mixamorig:RightHandThumb1
								{
									OFFSET -2.464806 -1.573990 2.681852
									CHANNELS 6 Xposition Yposition Zposition Xrotation Yrotation Zrotation
									JOINT mixamorig:RightHandThumb2
									{
										OFFSET -3.215179 -1.872803 1.924282
										CHANNELS 6 Xposition Yposition Zposition Xrotation Yrotation Zrotation
										JOINT mixamorig:RightHandThumb3
										{
											OFFSET -2.654831 -1.527969 1.512609
											CHANNELS 6 Xposition Yposition Zposition Xrotation Yrotation Zrotation
											JOINT mixamorig:RightHandThumb4
											{
												OFFSET -2.018814 -1.152008 1.108052
												CHANNELS 6 Xposition Yposition Zposition Xrotation Yrotation Zrotation
												End Site
												{
													OFFSET -188.809540 -114.533607 132.431396
												}
											}
										}
									}
								}
								JOINT mixamorig:RightHandIndex1
								{
									OFFSET -9.108284 -0.517868 2.259835
									CHANNELS 6 Xposition Yposition Zposition Xrotation Yrotation Zrotation
									JOINT mixamorig:RightHandIndex2
									{
										OFFSET -3.699989 0.000000 0.001215
										CHANNELS 6 Xposition Yposition Zposition Xrotation Yrotation Zrotation
										JOINT mixamorig:RightHandIndex3
										{
											OFFSET -2.850006 0.000031 -0.000522
											CHANNELS 6 Xposition Yposition Zposition Xrotation Yrotation Zrotation
											JOINT mixamorig:RightHandIndex4
											{
												OFFSET -2.772186 -0.000015 -0.000020
												CHANNELS 6 Xposition Yposition Zposition Xrotation Yrotation Zrotation
												End Site
												{
													OFFSET -277.218445 0.000000 -0.050231
												}
											}
										}
									}
								}
								JOINT mixamorig:RightHandMiddle1
								{
									OFFSET -9.532516 -0.000031 -0.000023
									CHANNELS 6 Xposition Yposition Zposition Xrotation Yrotation Zrotation
									JOINT mixamorig:RightHandMiddle2
									{
										OFFSET -3.700005 -0.000015 0.003713
										CHANNELS 6 Xposition Yposition Zposition Xrotation Yrotation Zrotation
										JOINT mixamorig:RightHandMiddle3
										{
											OFFSET -2.949974 0.000015 -0.002054
											CHANNELS 6 Xposition Yposition Zposition Xrotation Yrotation Zrotation
											JOINT mixamorig:RightHandMiddle4
											{
												OFFSET -2.946640 0.000000 -0.000156
												CHANNELS 6 Xposition Yposition Zposition Xrotation Yrotation Zrotation
												End Site
												{
													OFFSET -294.664337 0.000000 -0.113670
												}
											}
										}
									}
								}
								JOINT mixamorig:RightHandRing1
								{
									OFFSET -9.103600 -0.043076 -1.865134
									CHANNELS 6 Xposition Yposition Zposition Xrotation Yrotation Zrotation
									JOINT mixamorig:RightHandRing2
									{
										OFFSET -3.379288 0.000000 -0.001055
										CHANNELS 6 Xposition Yposition Zposition Xrotation Yrotation Zrotation
										JOINT mixamorig:RightHandRing3
										{
											OFFSET -2.889687 -0.000015 0.000379
											CHANNELS 6 Xposition Yposition Zposition Xrotation Yrotation Zrotation
											JOINT mixamorig:RightHandRing4
											{
												OFFSET -2.638809 -0.000015 0.000941
												CHANNELS 6 Xposition Yposition Zposition Xrotation Yrotation Zrotation
												End Site
												{
													OFFSET -263.880371 0.000000 0.516020
												}
											}
										}
									}
								}
								JOINT mixamorig:RightHandPinky1
								{
									OFFSET -8.076683 -0.486710 -3.806280
									CHANNELS 6 Xposition Yposition Zposition Xrotation Yrotation Zrotation
									JOINT mixamorig:RightHandPinky2
									{
										OFFSET -3.600014 -0.000015 -0.003747
										CHANNELS 6 Xposition Yposition Zposition Xrotation Yrotation Zrotation
										JOINT mixamorig:RightHandPinky3
										{
											OFFSET -2.099983 0.000000 -0.005739
											CHANNELS 6 Xposition Yposition Zposition Xrotation Yrotation Zrotation
											JOINT mixamorig:RightHandPinky4
											{
												OFFSET -2.115768 -0.000031 -0.003680
												CHANNELS 6 Xposition Yposition Zposition Xrotation Yrotation Zrotation
												End Site
												{
													OFFSET -211.577087 0.000000 -0.350686
												}
											}
										}
									}
								}
							}
						}
					}
				}
				JOINT mixamorig:LeftShoulder
				{
					OFFSET 4.570447 11.014725 -2.160855
					CHANNELS 6 Xposition Yposition Zposition Xrotation Yrotation Zrotation
					JOINT mixamorig:LeftArm
					{
						OFFSET 10.592371 -0.524597 -2.232119
						CHANNELS 6 Xposition Yposition Zposition Xrotation Yrotation Zrotation
						JOINT mixamorig:LeftForeArm
						{
							OFFSET 27.841532 -0.000031 0.000026
							CHANNELS 6 Xposition Yposition Zposition Xrotation Yrotation Zrotation
							JOINT mixamorig:LeftHand
							{
								OFFSET 28.328846 -0.000061 0.000022
								CHANNELS 6 Xposition Yposition Zposition Xrotation Yrotation Zrotation
								JOINT mixamorig:LeftHandThumb1
								{
									OFFSET 2.466141 -1.576172 2.681732
									CHANNELS 6 Xposition Yposition Zposition Xrotation Yrotation Zrotation
									JOINT mixamorig:LeftHandThumb2
									{
										OFFSET 3.217812 -1.872070 1.916482
										CHANNELS 6 Xposition Yposition Zposition Xrotation Yrotation Zrotation
										JOINT mixamorig:LeftHandThumb3
										{
											OFFSET 2.656029 -1.528778 1.514513
											CHANNELS 6 Xposition Yposition Zposition Xrotation Yrotation Zrotation
											JOINT mixamorig:LeftHandThumb4
											{
												OFFSET 2.020889 -1.154053 1.115139
												CHANNELS 6 Xposition Yposition Zposition Xrotation Yrotation Zrotation
												End Site
												{
													OFFSET 190.885437 -115.081749 130.048782
												}
											}
										}
									}
								}
								JOINT mixamorig:LeftHandIndex1
								{
									OFFSET 9.109314 -0.518021 2.259871
									CHANNELS 6 Xposition Yposition Zposition Xrotation Yrotation Zrotation
									JOINT mixamorig:LeftHandIndex2
									{
										OFFSET 3.699989 0.000000 -0.000322
										CHANNELS 6 Xposition Yposition Zposition Xrotation Yrotation Zrotation
										JOINT mixamorig:LeftHandIndex3
										{
											OFFSET 2.850006 0.000000 0.000352
											CHANNELS 6 Xposition Yposition Zposition Xrotation Yrotation Zrotation
											JOINT mixamorig:LeftHandIndex4
											{
												OFFSET 2.774864 -0.000031 -0.000027
												CHANNELS 6 Xposition Yposition Zposition Xrotation Yrotation Zrotation
												End Site
												{
													OFFSET 277.486267 0.000000 -0.009857
												}
											}
										}
									}
								}
								JOINT mixamorig:LeftHandMiddle1
								{
									OFFSET 9.533394 0.000061 0.000044
									CHANNELS 6 Xposition Yposition Zposition Xrotation Yrotation Zrotation
									JOINT mixamorig:LeftHandMiddle2
									{
										OFFSET 3.699989 -0.000015 -0.000231
										CHANNELS 6 Xposition Yposition Zposition Xrotation Yrotation Zrotation
										JOINT mixamorig:LeftHandMiddle3
										{
											OFFSET 2.949997 -0.000015 -0.000059
											CHANNELS 6 Xposition Yposition Zposition Xrotation Yrotation Zrotation
											JOINT mixamorig:LeftHandMiddle4
											{
												OFFSET 2.952896 0.000031 0.000063
												CHANNELS 6 Xposition Yposition Zposition Xrotation Yrotation Zrotation
												End Site
												{
													OFFSET 295.289337 0.000000 0.022810
												}
											}
										}
									}
								}
								JOINT mixamorig:LeftHandRing1
								{
									OFFSET 9.104523 -0.042999 -1.865074
									CHANNELS 6 Xposition Yposition Zposition Xrotation Yrotation Zrotation
									JOINT mixamorig:LeftHandRing2
									{
										OFFSET 3.150009 -0.000031 0.000043
										CHANNELS 6 Xposition Yposition Zposition Xrotation Yrotation Zrotation
										JOINT mixamorig:LeftHandRing3
										{
											OFFSET 2.949982 -0.000015 0.000040
											CHANNELS 6 Xposition Yposition Zposition Xrotation Yrotation Zrotation
											JOINT mixamorig:LeftHandRing4
											{
												OFFSET 2.644348 0.000000 0.000057
												CHANNELS 6 Xposition Yposition Zposition Xrotation Yrotation Zrotation
												End Site
												{
													OFFSET 264.434631 0.000000 0.012105
												}
											}
										}
									}
								}
								JOINT mixamorig:LeftHandPinky1
								{
									OFFSET 8.077789 -0.486847 -3.806259
									CHANNELS 6 Xposition Yposition Zposition Xrotation Yrotation Zrotation
									JOINT mixamorig:LeftHandPinky2
									{
										OFFSET 3.599953 0.000031 0.014727
										CHANNELS 6 Xposition Yposition Zposition Xrotation Yrotation Zrotation
										JOINT mixamorig:LeftHandPinky3
										{
											OFFSET 2.100021 0.000015 0.007705
											CHANNELS 6 Xposition Yposition Zposition Xrotation Yrotation Zrotation
											JOINT mixamorig:LeftHandPinky4
											{
												OFFSET 2.125504 0.000031 0.007517
												CHANNELS 6 Xposition Yposition Zposition Xrotation Yrotation Zrotation
												End Site
												{
													OFFSET 212.550781 0.000000 0.625752
												}
											}
										}
									}
								}
							}
						}
					}
				}
			}
		}
	}
	JOINT mixamorig:RightUpLeg
	{
		OFFSET -8.207787 -6.751648 -1.599560
		CHANNELS 6 Xposition Yposition Zposition Xrotation Yrotation Zrotation
		JOINT mixamorig:RightLeg
		{
			OFFSET -0.000002 -44.370117 0.345942
			CHANNELS 6 Xposition Yposition Zposition Xrotation Yrotation Zrotation
			JOINT mixamorig:RightFoot
			{
				OFFSET 0.000003 -44.423679 -3.043532
				CHANNELS 6 Xposition Yposition Zposition Xrotation Yrotation Zrotation
				JOINT mixamorig:RightToeBase
				{
					OFFSET -0.000002 -8.728671 10.710558
					CHANNELS 6 Xposition Yposition Zposition Xrotation Yrotation Zrotation
					JOINT mixamorig:RightToe_End
					{
						OFFSET -0.000001 -0.000679 9.278119
						CHANNELS 6 Xposition Yposition Zposition Xrotation Yrotation Zrotation
						End Site
						{
							OFFSET 0.000000 -0.067690 927.812134
						}
					}
				}
			}
		}
	}
	JOINT mixamorig:LeftUpLeg
	{
		OFFSET 8.207793 -6.751686 -1.599556
		CHANNELS 6 Xposition Yposition Zposition Xrotation Yrotation Zrotation
		JOINT mixamorig:LeftLeg
		{
			OFFSET -0.000004 -44.370014 0.346954
			CHANNELS 6 Xposition Yposition Zposition Xrotation Yrotation Zrotation
			JOINT mixamorig:LeftFoot
			{
				OFFSET -0.000001 -44.423672 -3.044401
				CHANNELS 6 Xposition Yposition Zposition Xrotation Yrotation Zrotation
				JOINT mixamorig:LeftToeBase
				{
					OFFSET -0.000002 -8.728669 10.710558
					CHANNELS 6 Xposition Yposition Zposition Xrotation Yrotation Zrotation
					JOINT mixamorig:LeftToe_End
					{
						OFFSET -0.000003 -0.000679 9.278133
						CHANNELS 6 Xposition Yposition Zposition Xrotation Yrotation Zrotation
						End Site
						{
							OFFSET 0.000000 -0.068021 927.813477
						}
					}
				}
			}
		}
	}
}
MOTION
Frames: 3
Frame Time: 0.033333
0.000006 104.270477 1.554256 0.000010 0.000003 -0.000113 -0.000005 10.181587 0.131522 0.000001 -0.000003 0.000084 -0.000000 9.893967 -1.470711 0.000001 0.000000 -0.000000 -0.000000 9.220802 -1.370642 0.000000 -0.000000 -0.000000 0.000001 16.740433 -2.049030 0.000000 -0.000000 -0.000000 0.000000 9.617859 1.685014 0.000000 0.000000 0.000000 0.000002 22.037384 7.501101 0.000000 -0.000000 0.000000 -4.569968 11.014880 -2.160881 0.000008 0.000001 -0.000038 -10.592876 -0.524747 -2.231918 76.232315 25.534053 -20.160564 -27.841522 0.000015 0.000522 -56.743682 109.026505 74.288593 -28.328838 0.000003 0.000022 -0.000322 -0.000046 0.000008 -2.464430 -1.573820 2.682355 -41.493601 -160.543952 5.383243 -3.215278 -1.872587 1.924647 154.810841 32.603461 9.701606 -2.654947 -1.527901 1.513087 149.854583 26.159548 -38.731073 -2.018833 -1.152004 1.108067 -0.000002 0.000003 0.000002 -9.108382 -0.517564 2.260138 99.497012 18.335189 -21.640838 -3.700080 0.000316 0.001520 95.667707 15.235536 -16.774332 -2.850082 0.000356 -0.000270 93.515556 12.175584 -12.939203 -2.772157 0.000001 -0.000018 -0.000000 0.000000 0.000000 -9.532577 0.000264 0.000236 93.020824 15.834330 -16.829735 -3.700071 0.000333 0.003973 92.656290 12.034570 -12.502364 -2.950063 0.000332 -0.001822 92.076851 11.820258 -12.246033 -2.946615 0.000000 -0.000155 0.000003 -0.000001 -0.000001 -9.103693 -0.042755 -1.864880 90.661814 16.632033 -16.777573 -3.379309 0.000317 -0.000817 90.894129 8.681628 -8.835047 -2.889757 0.000368 0.000628 94.469870 6.762244 -7.359160 -2.638811 -0.000025 0.000940 0.000004 0.000000 -0.000002 -8.076748 -0.486379 -3.806033 86.072644 16.679698 -15.447397 -3.600039 0.000282 -0.003520 88.145026 7.410456 -6.835833 -2.100008 0.000315 -0.005484 90.254530 4.879488 -4.683270 -2.115766 -0.000041 -0.003680 -0.000003 0.000002 -0.000007 4.570446 11.014691 -2.160851 -0.000018 0.000010 -0.000021 10.592384 -0.524480 -2.232324 74.784998 -6.773654 5.180052 27.841827 0.000071 -0.000196 96.114552 -69.692962 75.536408 28.328846 -0.000029 0.000020 0.000020 -0.000089 0.000000 2.466031 -1.576178 2.681904 -36.671415 160.604535 -16.223706 3.217827 -1.871781 1.916380 156.924921 -26.969046 23.186435 2.656096 -1.528645 1.514471 137.114463 -28.575801 46.687259 2.020888 -1.154078 1.115150 0.000001 0.000002 0.000001 9.109369 -0.517879 2.259737 74.800796 -15.674019 12.005374 3.700052 0.000113 -0.000462 72.641746 -16.279650 12.017897 2.850047 0.000145 0.000218 71.400489 -13.741532 9.896339 2.774873 -0.000012 -0.000034 -0.000000 -0.000001 -0.000001 9.533459 0.000180 -0.000082 75.006187 -15.015978 11.543767 3.700032 0.000145 -0.000362 78.659716 -15.197007 12.473536 2.950063 0.000132 -0.000197 76.006120 -19.319122 15.153664 2.952853 -0.000015 0.000065 -0.000001 0.000002 0.000002 9.104571 -0.042878 -1.865223 74.193306 -14.293378 10.834178 3.150065 0.000157 -0.000099 80.280759 -13.170967 11.122546 2.950012 0.000140 -0.000064 80.302951 -15.566278 13.156779 2.644323 0.000047 0.000057 -0.000001 -0.000000 0.000001 8.077824 -0.486757 -3.806406 65.539531 -16.259697 10.896543 3.599987 0.000139 0.014576 65.517032 -13.868230 9.287263 2.100050 0.000134 0.007560 68.406155 -14.135223 9.976342 2.125511 -0.000013 0.007514 0.000001 0.000001 -0.000003 -8.207786 -6.751667 -1.599560 -0.077001 -0.000003 0.000080 -0.000002 -44.370110 0.345938 0.153719 -0.000000 -0.000000 0.000000 -44.423679 -3.043532 -0.076700 0.000000 -0.000002 -0.000006 -8.728667 10.710559 -0.000009 -0.000000 -0.000000 -0.000001 -0.000679 9.278123 0.000000 -0.000000 -0.000000 8.207792 -6.751710 -1.599556 -0.074518 -0.000003 0.000081 -0.000002 -44.370014 0.346960 0.148822 0.000002 0.000000 -0.000001 -44.423664 -3.044403 -0.074314 0.000000 -0.000002 -0.000004 -8.728671 10.710558 0.000007 -0.000000 -0.000000 0.000000 -0.000680 9.278137 -0.000000 0.000000 -0.000001 
0.000006 104.270477 1.554256 0.000010 0.000003 -0.000113 -0.000005 10.181587 0.131522 0.000001 -0.000003 0.000084 -0.000000 9.893967 -1.470711 0.000001 0.000000 -0.000000 -0.000000 9.220802 -1.370642 0.000000 -0.000000 -0.000000 0.000001 16.740433 -2.049030 0.000000 -0.000000 -0.000000 0.000000 9.617859 1.685014 0.000000 0.000000 0.000000 0.000002 22.037384 7.501101 0.000000 -0.000000 0.000000 -4.569968 11.014880 -2.160881 0.000008 0.000001 -0.000038 -10.592871 -0.524773 -2.231895 76.196641 30.213205 -23.900681 -27.841520 -0.000001 0.000540 -55.693509 107.086896 71.134617 -28.328827 0.000004 0.000021 -0.000321 -0.000042 0.000006 -2.464416 -1.573818 2.682336 -43.647917 -160.236033 0.117459 -3.215288 -1.872534 1.924639 153.392785 32.170198 8.483560 -2.654957 -1.527888 1.513073 147.046487 27.110305 -35.078171 -2.018834 -1.152010 1.108062 -0.000004 -0.000003 0.000002 -9.108396 -0.517560 2.260115 98.532227 18.031906 -20.934115 -3.700063 0.000317 0.001529 95.200099 14.848729 -16.217255 -2.850084 0.000364 -0.000269 94.281309 11.920259 -12.837534 -2.772171 0.000000 -0.000020 0.000000 -0.000001 -0.000000 -9.532598 0.000249 0.000208 91.078428 18.993904 -19.496913 -3.700066 0.000331 0.003967 92.515370 13.460752 -13.958841 -2.950055 0.000341 -0.001788 94.630768 12.492483 -13.528111 -2.946625 0.000001 -0.000157 -0.000001 0.000000 0.000000 -9.103718 -0.042770 -1.864891 88.692069 20.104933 -19.615258 -3.379345 0.000299 -0.000817 91.166319 9.577459 -9.791163 -2.889756 0.000351 0.000640 97.581861 6.349134 -7.299558 -2.638801 -0.000003 0.000940 0.000001 -0.000003 0.000003 -8.076761 -0.486417 -3.806054 83.114140 20.241076 -17.845350 -3.600043 0.000280 -0.003526 87.275174 9.142844 -8.377917 -2.100020 0.000327 -0.005500 90.641747 5.061033 -4.897996 -2.115769 -0.000026 -0.003681 0.000002 -0.000000 -0.000003 4.570446 11.014691 -2.160851 -0.000018 0.000010 -0.000021 10.592387 -0.524480 -2.232355 74.905182 -8.104924 6.212855 27.841820 0.000056 -0.000201 96.671875 -72.730661 79.214505 28.328840 -0.000028 0.000018 0.000021 -0.000089 -0.000000 2.466248 -1.576009 2.681809 7.153247 174.786795 -108.442306 3.217864 -1.871869 1.916438 164.856984 -19.075714 49.486158 2.656101 -1.528700 1.514503 141.144083 -26.610543 62.448665 2.020883 -1.154067 1.115146 0.000005 0.000002 0.000003 9.109379 -0.517873 2.259745 77.447802 -20.721022 16.669024 3.700037 0.000127 -0.000475 75.959736 -12.760961 9.992126 2.850054 0.000177 0.000197 74.558413 -9.602840 7.316137 2.774872 -0.000030 -0.000029 0.000000 0.000003 -0.000000 9.533457 0.000196 -0.000084 76.695559 -18.583959 14.742868 3.700028 0.000139 -0.000390 79.641406 -9.547169 7.963692 2.950046 0.000154 -0.000206 78.968509 -10.387424 8.567838 2.952859 -0.000029 0.000058 -0.000000 0.000002 -0.000000 9.104588 -0.042864 -1.865240 75.996291 -17.936485 14.058785 3.150032 0.000176 -0.000094 80.020263 -10.661910 8.958761 2.950020 0.000165 -0.000099 80.037639 -9.659955 8.118185 2.644329 0.000031 0.000059 0.000000 -0.000003 -0.000001 8.077833 -0.486741 -3.806393 68.373848 -19.556059 13.776499 3.600019 0.000155 0.014578 69.433258 -15.641493 11.242216 2.100046 0.000137 0.007546 70.828987 -12.277814 9.095530 2.125485 0.000000 0.007513 0.000000 0.000004 -0.000002 -8.207786 -6.751667 -1.599560 -0.077001 -0.000003 0.000080 -0.000002 -44.370110 0.345938 0.153719 -0.000000 -0.000000 0.000000 -44.423679 -3.043532 -0.076700 0.000000 -0.000002 -0.000006 -8.728667 10.710559 -0.000009 -0.000000 -0.000000 -0.000001 -0.000679 9.278123 0.000000 -0.000000 -0.000000 8.207792 -6.751710 -1.599556 -0.074518 -0.000003 0.000081 -0.000002 -44.370014 0.346960 0.148822 0.000002 0.000000 -0.000001 -44.423664 -3.044403 -0.074314 0.000000 -0.000002 -0.000004 -8.728671 10.710558 0.000007 -0.000000 -0.000000 0.000000 -0.000680 9.278137 -0.000000 0.000000 -0.000001 
0.000006 104.270477 1.554256 0.000010 0.000003 -0.000113 -0.000005 10.181587 0.131522 0.000001 -0.000003 0.000084 -0.000000 9.893967 -1.470711 0.000001 0.000000 -0.000000 -0.000000 9.220802 -1.370642 0.000000 -0.000000 -0.000000 0.000001 16.740433 -2.049030 0.000000 -0.000000 -0.000000 0.000000 9.617859 1.685014 0.000000 0.000000 0.000000 0.000002 22.037384 7.501101 0.000000 -0.000000 0.000000 -4.569968 11.014880 -2.160881 0.000008 0.000001 -0.000038 -10.592859 -0.524800 -2.231858 75.956690 38.348070 -30.375470 -27.841522 0.000018 0.000546 -54.236627 104.561447 67.021573 -28.328817 0.000020 0.000025 -0.000319 -0.000046 0.000009 -2.464392 -1.573848 2.682352 -38.370927 -156.228611 10.886308 -3.215266 -1.872576 1.924654 153.132636 31.790610 6.269959 -2.654951 -1.527884 1.513072 145.417801 27.678693 -31.708204 -2.018842 -1.152001 1.108057 -0.000002 -0.000001 0.000002 -9.108358 -0.517544 2.260126 101.043257 17.012405 -20.639160 -3.700070 0.000320 0.001529 97.369032 13.074005 -14.828182 -2.850098 0.000375 -0.000265 95.821154 10.426546 -11.535384 -2.772148 -0.000015 -0.000017 -0.000001 0.000001 0.000000 -9.532595 0.000268 0.000228 92.295049 17.130917 -17.969688 -3.700070 0.000316 0.003972 94.212822 12.263885 -13.090565 -2.950063 0.000343 -0.001799 94.882515 12.132058 -13.195670 -2.946641 -0.000000 -0.000156 -0.000001 0.000001 0.000000 -9.103681 -0.042763 -1.864897 89.591455 18.514881 -18.340684 -3.379341 0.000309 -0.000807 91.763325 9.945773 -10.272972 -2.889743 0.000350 0.000660 97.589395 7.302262 -8.388566 -2.638811 0.000001 0.000941 -0.000002 0.000001 -0.000002 -8.076738 -0.486395 -3.806045 83.094606 18.993814 -16.728574 -3.600048 0.000280 -0.003524 87.685825 9.921109 -9.182488 -2.100010 0.000304 -0.005477 91.729502 6.379976 -6.346715 -2.115771 -0.000038 -0.003682 -0.000002 0.000000 -0.000002 4.570446 11.014691 -2.160851 -0.000018 0.000010 -0.000021 10.592402 -0.524470 -2.232365 74.027229 -14.221823 10.746095 27.841818 0.000045 -0.000210 98.538709 -74.776686 83.181124 28.328825 -0.000029 0.000018 0.000018 -0.000089 -0.000000 2.466268 -1.575947 2.681794 16.387249 186.409782 -131.779402 3.217881 -1.871937 1.916468 161.799586 -15.758274 64.757877 2.656090 -1.528702 1.514499 140.324980 -26.919466 63.133248 2.020883 -1.154069 1.115149 0.000001 0.000003 0.000006 9.109377 -0.517885 2.259734 80.328851 -20.961357 17.737079 3.700035 0.000152 -0.000470 78.411767 -12.969786 10.609124 2.850029 0.000168 0.000198 77.170148 -9.638795 7.696024 2.774879 -0.000030 -0.000029 0.000000 -0.000002 -0.000000 9.533468 0.000179 -0.000077 78.679114 -19.281945 15.845694 3.700022 0.000164 -0.000379 82.470375 -9.580054 8.399359 2.950051 0.000168 -0.000215 82.294415 -9.520861 8.326413 2.952873 -0.000015 0.000065 -0.000000 0.000001 -0.000000 9.104579 -0.042876 -1.865223 78.037158 -18.821860 15.300496 3.150048 0.000204 -0.000107 81.851546 -11.461769 9.947324 2.950000 0.000168 -0.000089 81.473065 -9.568845 8.247554 2.644324 0.000045 0.000055 0.000000 0.000003 0.000000 8.077841 -0.486760 -3.806407 69.147613 -20.510365 14.647551 3.600002 0.000133 0.014578 69.584663 -16.938108 12.189624 2.100033 0.000154 0.007552 71.018231 -13.023959 9.666075 2.125501 -0.000029 0.007514 -0.000001 0.000003 -0.000002 -8.207786 -6.751667 -1.599560 -0.077001 -0.000003 0.000080 -0.000002 -44.370110 0.345938 0.153719 -0.000000 -0.000000 0.000000 -44.423679 -3.043532 -0.076700 0.000000 -0.000002 -0.000006 -8.728667 10.710559 -0.000009 -0.000000 -0.000000 -0.000001 -0.000679 9.278123 0.000000 -0.000000 -0.000000 8.207792 -6.751710 -1.599556 -0.074518 -0.000003 0.000081 -0.000002 -44.370014 0.346960 0.148822 0.000002 0.000000 -0.000001 -44.423664 -3.044403 -0.074314 0.000000 -0.000002 -0.000004 -8.728671 10.710558 0.000007 -0.000000 -0.000000 0.000000 -0.000680 9.278137 -0.000000 0.000000 -0.000001 
